<svg width="22" height="21" viewBox="0 0 22 21" fill="none" xmlns="http://www.w3.org/2000/svg">
<path d="M1.25 1.5H2.63568C3.14537 1.5 3.59138 1.84265 3.7227 2.33513L4.1059 3.77209M6.5 12.75C4.84315 12.75 3.5 14.0931 3.5 15.75H19.25M6.5 12.75H17.7183C18.8394 10.4494 19.8177 8.06635 20.6417 5.6125C15.88 4.39646 10.8905 3.75 5.75 3.75C5.20021 3.75 4.65214 3.7574 4.1059 3.77209M6.5 12.75L4.1059 3.77209M5 18.75C5 19.1642 4.66421 19.5 4.25 19.5C3.83579 19.5 3.5 19.1642 3.5 18.75C3.5 18.3358 3.83579 18 4.25 18C4.66421 18 5 18.3358 5 18.75ZM17.75 18.75C17.75 19.1642 17.4142 19.5 17 19.5C16.5858 19.5 16.25 19.1642 16.25 18.75C16.25 18.3358 16.5858 18 17 18C17.4142 18 17.75 18.3358 17.75 18.75Z" stroke="white" stroke-width="1.5" stroke-linecap="round" stroke-linejoin="round"/>
</svg>
