<svg width="170" height="135" viewBox="0 0 170 135" fill="none" xmlns="http://www.w3.org/2000/svg">
<mask id="mask0_84_251" style="mask-type:luminance" maskUnits="userSpaceOnUse" x="25" y="23" width="122" height="99">
<path d="M25.9355 23.865H146.056V121.655H25.9355V23.865Z" fill="white"/>
</mask>
<g mask="url(#mask0_84_251)">
<path d="M118.307 87.7615H37.4111C36.3324 87.7615 35.3078 87.2945 34.6 86.4804C33.8923 85.6662 33.5726 84.5866 33.7229 83.5185L41.2499 29.9622C41.5067 28.1345 43.0923 26.7562 44.9381 26.7562H142.328C143.596 26.7562 144.765 27.3919 145.454 28.4565C146.144 29.521 146.245 30.8477 145.726 32.0048L121.705 85.5613C121.106 86.8978 119.772 87.7615 118.307 87.7615ZM44.9379 28.502C43.9573 28.502 43.115 29.2342 42.9784 30.2052L35.4518 83.7617C35.372 84.3291 35.542 84.9026 35.9179 85.3352C36.2938 85.7678 36.8381 86.0157 37.4113 86.0157H118.307C119.085 86.0157 119.794 85.5569 120.113 84.8467L144.133 31.2904C144.413 30.6665 144.361 29.9793 143.989 29.4053C143.617 28.8311 143.012 28.5018 142.328 28.5018H44.9379V28.502Z" fill="#FF4000"/>
<path d="M104.674 109.601H37.1184C35.2378 109.601 33.4531 108.785 32.2222 107.364C30.991 105.942 30.4394 104.059 30.7084 102.198L35.244 70.8129C35.3127 70.3358 35.7553 70.0044 36.2326 70.0739C36.7097 70.1429 37.0407 70.5856 36.9716 71.0625L32.436 102.447C32.2396 103.807 32.6427 105.182 33.5418 106.221C34.4409 107.259 35.7446 107.855 37.1182 107.855H104.674C105.156 107.855 105.546 108.246 105.546 108.728C105.546 109.21 105.156 109.601 104.674 109.601Z" fill="#FF4000"/>
<path d="M42.4061 121.655C45.346 121.655 47.7292 119.272 47.7292 116.332C47.7292 113.392 45.346 111.009 42.4061 111.009C39.4662 111.009 37.083 113.392 37.083 116.332C37.083 119.272 39.4662 121.655 42.4061 121.655Z" fill="#FF4000"/>
<path d="M29.6995 31.3929C31.7782 31.3929 33.4634 29.7077 33.4634 27.6289C33.4634 25.5502 31.7782 23.865 29.6995 23.865C27.6207 23.865 25.9355 25.5502 25.9355 27.6289C25.9355 29.7077 27.6207 31.3929 29.6995 31.3929Z" fill="#FF4000"/>
<path d="M92.3885 121.655C95.3284 121.655 97.7116 119.272 97.7116 116.332C97.7116 113.392 95.3284 111.009 92.3885 111.009C89.4487 111.009 87.0654 113.392 87.0654 116.332C87.0654 119.272 89.4487 121.655 92.3885 121.655Z" fill="#FF4000"/>
<path d="M54.4089 28.502H29.7176C29.2354 28.502 28.8447 28.1113 28.8447 27.6291C28.8447 27.1469 29.2354 26.7562 29.7176 26.7562H54.4091C54.8913 26.7562 55.282 27.1469 55.282 27.6291C55.282 28.1113 54.8911 28.502 54.4089 28.502Z" fill="#FF4000"/>
</g>
<mask id="mask1_84_251" style="mask-type:luminance" maskUnits="userSpaceOnUse" x="36" y="56" width="94" height="30">
<path d="M36.4648 85.29H129.09V56.04H36.4648V85.29Z" fill="white"/>
</mask>
<g mask="url(#mask1_84_251)">
<path d="M125.939 70.1395C126.644 70.1395 127.215 70.7105 127.215 71.4148C127.215 72.1192 126.644 72.6901 125.939 72.6901C125.235 72.6901 124.664 72.1192 124.664 71.4148C124.664 70.7105 125.235 70.1395 125.939 70.1395Z" fill="#FF4000"/>
<path d="M125.939 63.8395C126.644 63.8395 127.215 64.4105 127.215 65.1148C127.215 65.8192 126.644 66.3901 125.939 66.3901C125.235 66.3901 124.664 65.8192 124.664 65.1148C124.664 64.4105 125.235 63.8395 125.939 63.8395Z" fill="#FF4000"/>
<path d="M125.939 57.5396C126.644 57.5396 127.215 58.1106 127.215 58.8149C127.215 59.5192 126.644 60.0902 125.939 60.0902C125.235 60.0902 124.664 59.5192 124.664 58.8149C124.664 58.1106 125.235 57.5396 125.939 57.5396Z" fill="#FF4000"/>
<path d="M119.64 76.4395C120.344 76.4395 120.915 77.0104 120.915 77.7148C120.915 78.4191 120.344 78.9901 119.64 78.9901C118.935 78.9901 118.364 78.4191 118.364 77.7148C118.364 77.0104 118.935 76.4395 119.64 76.4395Z" fill="#FF4000"/>
<path d="M119.64 70.1395C120.344 70.1395 120.915 70.7105 120.915 71.4148C120.915 72.1192 120.344 72.6901 119.64 72.6901C118.935 72.6901 118.364 72.1192 118.364 71.4148C118.364 70.7105 118.935 70.1395 119.64 70.1395Z" fill="#FF4000"/>
<path d="M119.64 63.8395C120.344 63.8395 120.915 64.4105 120.915 65.1148C120.915 65.8192 120.344 66.3901 119.64 66.3901C118.935 66.3901 118.364 65.8192 118.364 65.1148C118.364 64.4105 118.935 63.8395 119.64 63.8395Z" fill="#FF4000"/>
<path d="M119.64 57.5396C120.344 57.5396 120.915 58.1106 120.915 58.8149C120.915 59.5192 120.344 60.0902 119.64 60.0902C118.935 60.0902 118.364 59.5192 118.364 58.8149C118.364 58.1106 118.935 57.5396 119.64 57.5396Z" fill="#FF4000"/>
<path d="M113.34 82.7394C114.044 82.7394 114.615 83.3104 114.615 84.0147C114.615 84.7191 114.044 85.29 113.34 85.29C112.635 85.29 112.064 84.7191 112.064 84.0147C112.064 83.3104 112.635 82.7394 113.34 82.7394Z" fill="#FF4000"/>
<path d="M113.34 76.4395C114.044 76.4395 114.615 77.0104 114.615 77.7148C114.615 78.4191 114.044 78.9901 113.34 78.9901C112.635 78.9901 112.064 78.4191 112.064 77.7148C112.064 77.0104 112.635 76.4395 113.34 76.4395Z" fill="#FF4000"/>
<path d="M113.34 70.1395C114.044 70.1395 114.615 70.7105 114.615 71.4148C114.615 72.1192 114.044 72.6901 113.34 72.6901C112.635 72.6901 112.064 72.1192 112.064 71.4148C112.064 70.7105 112.635 70.1395 113.34 70.1395Z" fill="#FF4000"/>
<path d="M113.34 63.8395C114.044 63.8395 114.615 64.4105 114.615 65.1148C114.615 65.8192 114.044 66.3901 113.34 66.3901C112.635 66.3901 112.064 65.8192 112.064 65.1148C112.064 64.4105 112.635 63.8395 113.34 63.8395Z" fill="#FF4000"/>
<path d="M113.34 57.5396C114.044 57.5396 114.615 58.1106 114.615 58.8149C114.615 59.5192 114.044 60.0902 113.34 60.0902C112.635 60.0902 112.064 59.5192 112.064 58.8149C112.064 58.1106 112.635 57.5396 113.34 57.5396Z" fill="#FF4000"/>
<path d="M107.04 82.7394C107.744 82.7394 108.315 83.3104 108.315 84.0147C108.315 84.7191 107.744 85.29 107.04 85.29C106.336 85.29 105.765 84.7191 105.765 84.0147C105.765 83.3104 106.336 82.7394 107.04 82.7394Z" fill="#FF4000"/>
<path d="M107.04 76.4395C107.744 76.4395 108.315 77.0104 108.315 77.7148C108.315 78.4191 107.744 78.9901 107.04 78.9901C106.336 78.9901 105.765 78.4191 105.765 77.7148C105.765 77.0104 106.336 76.4395 107.04 76.4395Z" fill="#FF4000"/>
<path d="M107.04 70.1395C107.744 70.1395 108.315 70.7105 108.315 71.4148C108.315 72.1192 107.744 72.6901 107.04 72.6901C106.336 72.6901 105.765 72.1192 105.765 71.4148C105.765 70.7105 106.336 70.1395 107.04 70.1395Z" fill="#FF4000"/>
<path d="M107.04 63.8395C107.744 63.8395 108.315 64.4105 108.315 65.1148C108.315 65.8192 107.744 66.3901 107.04 66.3901C106.336 66.3901 105.765 65.8192 105.765 65.1148C105.765 64.4105 106.336 63.8395 107.04 63.8395Z" fill="#FF4000"/>
<path d="M107.04 57.5396C107.744 57.5396 108.315 58.1106 108.315 58.8149C108.315 59.5192 107.744 60.0902 107.04 60.0902C106.336 60.0902 105.765 59.5192 105.765 58.8149C105.765 58.1106 106.336 57.5396 107.04 57.5396Z" fill="#FF4000"/>
<path d="M100.74 82.7394C101.444 82.7394 102.015 83.3104 102.015 84.0147C102.015 84.7191 101.444 85.29 100.74 85.29C100.036 85.29 99.4648 84.7191 99.4648 84.0147C99.4648 83.3104 100.036 82.7394 100.74 82.7394Z" fill="#FF4000"/>
<path d="M100.74 76.4395C101.444 76.4395 102.015 77.0104 102.015 77.7148C102.015 78.4191 101.444 78.9901 100.74 78.9901C100.036 78.9901 99.4648 78.4191 99.4648 77.7148C99.4648 77.0104 100.036 76.4395 100.74 76.4395Z" fill="#FF4000"/>
<path d="M100.74 70.1395C101.444 70.1395 102.015 70.7105 102.015 71.4148C102.015 72.1192 101.444 72.6901 100.74 72.6901C100.036 72.6901 99.4648 72.1192 99.4648 71.4148C99.4648 70.7105 100.036 70.1395 100.74 70.1395Z" fill="#FF4000"/>
<path d="M100.74 63.8395C101.444 63.8395 102.015 64.4105 102.015 65.1148C102.015 65.8192 101.444 66.3901 100.74 66.3901C100.036 66.3901 99.4648 65.8192 99.4648 65.1148C99.4648 64.4105 100.036 63.8395 100.74 63.8395Z" fill="#FF4000"/>
<path d="M100.74 57.5396C101.444 57.5396 102.015 58.1106 102.015 58.8149C102.015 59.5192 101.444 60.0902 100.74 60.0902C100.036 60.0902 99.4648 59.5192 99.4648 58.8149C99.4648 58.1106 100.036 57.5396 100.74 57.5396Z" fill="#FF4000"/>
<path d="M94.4394 82.7394C95.1437 82.7394 95.7147 83.3104 95.7147 84.0147C95.7147 84.7191 95.1437 85.29 94.4394 85.29C93.735 85.29 93.1641 84.7191 93.1641 84.0147C93.1641 83.3104 93.735 82.7394 94.4394 82.7394Z" fill="#FF4000"/>
<path d="M94.4394 76.4395C95.1437 76.4395 95.7147 77.0104 95.7147 77.7148C95.7147 78.4191 95.1437 78.9901 94.4394 78.9901C93.735 78.9901 93.1641 78.4191 93.1641 77.7148C93.1641 77.0104 93.735 76.4395 94.4394 76.4395Z" fill="#FF4000"/>
<path d="M94.4394 70.1395C95.1437 70.1395 95.7147 70.7105 95.7147 71.4148C95.7147 72.1192 95.1437 72.6901 94.4394 72.6901C93.735 72.6901 93.1641 72.1192 93.1641 71.4148C93.1641 70.7105 93.735 70.1395 94.4394 70.1395Z" fill="#FF4000"/>
<path d="M94.4394 63.8395C95.1437 63.8395 95.7147 64.4105 95.7147 65.1148C95.7147 65.8192 95.1437 66.3901 94.4394 66.3901C93.735 66.3901 93.1641 65.8192 93.1641 65.1148C93.1641 64.4105 93.735 63.8395 94.4394 63.8395Z" fill="#FF4000"/>
<path d="M94.4394 57.5396C95.1437 57.5396 95.7147 58.1106 95.7147 58.8149C95.7147 59.5192 95.1437 60.0902 94.4394 60.0902C93.735 60.0902 93.1641 59.5192 93.1641 58.8149C93.1641 58.1106 93.735 57.5396 94.4394 57.5396Z" fill="#FF4000"/>
<path d="M88.1396 82.7394C88.8439 82.7394 89.4149 83.3104 89.4149 84.0147C89.4149 84.7191 88.8439 85.29 88.1396 85.29C87.4352 85.29 86.8643 84.7191 86.8643 84.0147C86.8643 83.3104 87.4352 82.7394 88.1396 82.7394Z" fill="#FF4000"/>
<path d="M88.1396 76.4395C88.8439 76.4395 89.4149 77.0104 89.4149 77.7148C89.4149 78.4191 88.8439 78.9901 88.1396 78.9901C87.4352 78.9901 86.8643 78.4191 86.8643 77.7148C86.8643 77.0104 87.4352 76.4395 88.1396 76.4395Z" fill="#FF4000"/>
<path d="M88.1396 70.1395C88.8439 70.1395 89.4149 70.7105 89.4149 71.4148C89.4149 72.1192 88.8439 72.6901 88.1396 72.6901C87.4352 72.6901 86.8643 72.1192 86.8643 71.4148C86.8643 70.7105 87.4352 70.1395 88.1396 70.1395Z" fill="#FF4000"/>
<path d="M88.1396 63.8395C88.8439 63.8395 89.4149 64.4105 89.4149 65.1148C89.4149 65.8192 88.8439 66.3901 88.1396 66.3901C87.4352 66.3901 86.8643 65.8192 86.8643 65.1148C86.8643 64.4105 87.4352 63.8395 88.1396 63.8395Z" fill="#FF4000"/>
<path d="M88.1396 57.5396C88.8439 57.5396 89.4149 58.1106 89.4149 58.8149C89.4149 59.5192 88.8439 60.0902 88.1396 60.0902C87.4352 60.0902 86.8643 59.5192 86.8643 58.8149C86.8643 58.1106 87.4352 57.5396 88.1396 57.5396Z" fill="#FF4000"/>
<path d="M81.8397 82.7394C82.5441 82.7394 83.115 83.3104 83.115 84.0147C83.115 84.7191 82.5441 85.29 81.8397 85.29C81.1354 85.29 80.5645 84.7191 80.5645 84.0147C80.5645 83.3104 81.1354 82.7394 81.8397 82.7394Z" fill="#FF4000"/>
<path d="M81.8397 76.4395C82.5441 76.4395 83.115 77.0104 83.115 77.7148C83.115 78.4191 82.5441 78.9901 81.8397 78.9901C81.1354 78.9901 80.5645 78.4191 80.5645 77.7148C80.5645 77.0104 81.1354 76.4395 81.8397 76.4395Z" fill="#FF4000"/>
<path d="M81.8397 70.1395C82.5441 70.1395 83.115 70.7105 83.115 71.4148C83.115 72.1192 82.5441 72.6901 81.8397 72.6901C81.1354 72.6901 80.5645 72.1192 80.5645 71.4148C80.5645 70.7105 81.1354 70.1395 81.8397 70.1395Z" fill="#FF4000"/>
<path d="M81.8397 63.8395C82.5441 63.8395 83.115 64.4105 83.115 65.1148C83.115 65.8192 82.5441 66.3901 81.8397 66.3901C81.1354 66.3901 80.5645 65.8192 80.5645 65.1148C80.5645 64.4105 81.1354 63.8395 81.8397 63.8395Z" fill="#FF4000"/>
<path d="M81.8397 57.5396C82.5441 57.5396 83.115 58.1106 83.115 58.8149C83.115 59.5192 82.5441 60.0902 81.8397 60.0902C81.1354 60.0902 80.5645 59.5192 80.5645 58.8149C80.5645 58.1106 81.1354 57.5396 81.8397 57.5396Z" fill="#FF4000"/>
<path d="M75.5399 82.7394C76.2443 82.7394 76.8152 83.3104 76.8152 84.0147C76.8152 84.7191 76.2443 85.29 75.5399 85.29C74.8356 85.29 74.2646 84.7191 74.2646 84.0147C74.2646 83.3104 74.8356 82.7394 75.5399 82.7394Z" fill="#FF4000"/>
<path d="M75.5399 76.4395C76.2443 76.4395 76.8152 77.0104 76.8152 77.7148C76.8152 78.4191 76.2443 78.9901 75.5399 78.9901C74.8356 78.9901 74.2646 78.4191 74.2646 77.7148C74.2646 77.0104 74.8356 76.4395 75.5399 76.4395Z" fill="#FF4000"/>
<path d="M75.5399 70.1395C76.2443 70.1395 76.8152 70.7105 76.8152 71.4148C76.8152 72.1192 76.2443 72.6901 75.5399 72.6901C74.8356 72.6901 74.2646 72.1192 74.2646 71.4148C74.2646 70.7105 74.8356 70.1395 75.5399 70.1395Z" fill="#FF4000"/>
<path d="M75.5399 63.8395C76.2443 63.8395 76.8152 64.4105 76.8152 65.1148C76.8152 65.8192 76.2443 66.3901 75.5399 66.3901C74.8356 66.3901 74.2646 65.8192 74.2646 65.1148C74.2646 64.4105 74.8356 63.8395 75.5399 63.8395Z" fill="#FF4000"/>
<path d="M75.5399 57.5396C76.2443 57.5396 76.8152 58.1106 76.8152 58.8149C76.8152 59.5192 76.2443 60.0902 75.5399 60.0902C74.8356 60.0902 74.2646 59.5192 74.2646 58.8149C74.2646 58.1106 74.8356 57.5396 75.5399 57.5396Z" fill="#FF4000"/>
<path d="M69.2401 82.7394C69.9445 82.7394 70.5154 83.3104 70.5154 84.0147C70.5154 84.7191 69.9445 85.29 69.2401 85.29C68.5358 85.29 67.9648 84.7191 67.9648 84.0147C67.9648 83.3104 68.5358 82.7394 69.2401 82.7394Z" fill="#FF4000"/>
<path d="M69.2401 76.4395C69.9445 76.4395 70.5154 77.0104 70.5154 77.7148C70.5154 78.4191 69.9445 78.9901 69.2401 78.9901C68.5358 78.9901 67.9648 78.4191 67.9648 77.7148C67.9648 77.0104 68.5358 76.4395 69.2401 76.4395Z" fill="#FF4000"/>
<path d="M69.2401 70.1395C69.9445 70.1395 70.5154 70.7105 70.5154 71.4148C70.5154 72.1192 69.9445 72.6901 69.2401 72.6901C68.5358 72.6901 67.9648 72.1192 67.9648 71.4148C67.9648 70.7105 68.5358 70.1395 69.2401 70.1395Z" fill="#FF4000"/>
<path d="M69.2401 63.8395C69.9445 63.8395 70.5154 64.4105 70.5154 65.1148C70.5154 65.8192 69.9445 66.3901 69.2401 66.3901C68.5358 66.3901 67.9648 65.8192 67.9648 65.1148C67.9648 64.4105 68.5358 63.8395 69.2401 63.8395Z" fill="#FF4000"/>
<path d="M69.2401 57.5396C69.9445 57.5396 70.5154 58.1106 70.5154 58.8149C70.5154 59.5192 69.9445 60.0902 69.2401 60.0902C68.5358 60.0902 67.9648 59.5192 67.9648 58.8149C67.9648 58.1106 68.5358 57.5396 69.2401 57.5396Z" fill="#FF4000"/>
<path d="M62.9403 82.7394C63.6447 82.7394 64.2156 83.3104 64.2156 84.0147C64.2156 84.7191 63.6447 85.29 62.9403 85.29C62.236 85.29 61.665 84.7191 61.665 84.0147C61.665 83.3104 62.236 82.7394 62.9403 82.7394Z" fill="#FF4000"/>
<path d="M62.9403 76.4395C63.6447 76.4395 64.2156 77.0104 64.2156 77.7148C64.2156 78.4191 63.6447 78.9901 62.9403 78.9901C62.236 78.9901 61.665 78.4191 61.665 77.7148C61.665 77.0104 62.236 76.4395 62.9403 76.4395Z" fill="#FF4000"/>
<path d="M62.9403 70.1395C63.6447 70.1395 64.2156 70.7105 64.2156 71.4148C64.2156 72.1192 63.6447 72.6901 62.9403 72.6901C62.236 72.6901 61.665 72.1192 61.665 71.4148C61.665 70.7105 62.236 70.1395 62.9403 70.1395Z" fill="#FF4000"/>
<path d="M62.9403 63.8395C63.6447 63.8395 64.2156 64.4105 64.2156 65.1148C64.2156 65.8192 63.6447 66.3901 62.9403 66.3901C62.236 66.3901 61.665 65.8192 61.665 65.1148C61.665 64.4105 62.236 63.8395 62.9403 63.8395Z" fill="#FF4000"/>
<path d="M62.9403 57.5396C63.6447 57.5396 64.2156 58.1106 64.2156 58.8149C64.2156 59.5192 63.6447 60.0902 62.9403 60.0902C62.236 60.0902 61.665 59.5192 61.665 58.8149C61.665 58.1106 62.236 57.5396 62.9403 57.5396Z" fill="#FF4000"/>
<path d="M56.6396 82.7394C57.3439 82.7394 57.9149 83.3104 57.9149 84.0147C57.9149 84.7191 57.3439 85.29 56.6396 85.29C55.9352 85.29 55.3643 84.7191 55.3643 84.0147C55.3643 83.3104 55.9352 82.7394 56.6396 82.7394Z" fill="#FF4000"/>
<path d="M56.6396 76.4395C57.3439 76.4395 57.9149 77.0104 57.9149 77.7148C57.9149 78.4191 57.3439 78.9901 56.6396 78.9901C55.9352 78.9901 55.3643 78.4191 55.3643 77.7148C55.3643 77.0104 55.9352 76.4395 56.6396 76.4395Z" fill="#FF4000"/>
<path d="M56.6396 70.1395C57.3439 70.1395 57.9149 70.7105 57.9149 71.4148C57.9149 72.1192 57.3439 72.6901 56.6396 72.6901C55.9352 72.6901 55.3643 72.1192 55.3643 71.4148C55.3643 70.7105 55.9352 70.1395 56.6396 70.1395Z" fill="#FF4000"/>
<path d="M56.6396 63.8395C57.3439 63.8395 57.9149 64.4105 57.9149 65.1148C57.9149 65.8192 57.3439 66.3901 56.6396 66.3901C55.9352 66.3901 55.3643 65.8192 55.3643 65.1148C55.3643 64.4105 55.9352 63.8395 56.6396 63.8395Z" fill="#FF4000"/>
<path d="M56.6396 57.5396C57.3439 57.5396 57.9149 58.1106 57.9149 58.8149C57.9149 59.5192 57.3439 60.0902 56.6396 60.0902C55.9352 60.0902 55.3643 59.5192 55.3643 58.8149C55.3643 58.1106 55.9352 57.5396 56.6396 57.5396Z" fill="#FF4000"/>
<path d="M50.3397 82.7394C51.0441 82.7394 51.615 83.3104 51.615 84.0147C51.615 84.7191 51.0441 85.29 50.3397 85.29C49.6354 85.29 49.0645 84.7191 49.0645 84.0147C49.0645 83.3104 49.6354 82.7394 50.3397 82.7394Z" fill="#FF4000"/>
<path d="M50.3397 76.4395C51.0441 76.4395 51.615 77.0104 51.615 77.7148C51.615 78.4191 51.0441 78.9901 50.3397 78.9901C49.6354 78.9901 49.0645 78.4191 49.0645 77.7148C49.0645 77.0104 49.6354 76.4395 50.3397 76.4395Z" fill="#FF4000"/>
<path d="M50.3397 70.1395C51.0441 70.1395 51.615 70.7105 51.615 71.4148C51.615 72.1192 51.0441 72.6901 50.3397 72.6901C49.6354 72.6901 49.0645 72.1192 49.0645 71.4148C49.0645 70.7105 49.6354 70.1395 50.3397 70.1395Z" fill="#FF4000"/>
<path d="M50.3397 63.8395C51.0441 63.8395 51.615 64.4105 51.615 65.1148C51.615 65.8192 51.0441 66.3901 50.3397 66.3901C49.6354 66.3901 49.0645 65.8192 49.0645 65.1148C49.0645 64.4105 49.6354 63.8395 50.3397 63.8395Z" fill="#FF4000"/>
<path d="M50.3397 57.5396C51.0441 57.5396 51.615 58.1106 51.615 58.8149C51.615 59.5192 51.0441 60.0902 50.3397 60.0902C49.6354 60.0902 49.0645 59.5192 49.0645 58.8149C49.0645 58.1106 49.6354 57.5396 50.3397 57.5396Z" fill="#FF4000"/>
<path d="M44.0399 82.7394C44.7443 82.7394 45.3152 83.3104 45.3152 84.0147C45.3152 84.7191 44.7443 85.29 44.0399 85.29C43.3356 85.29 42.7646 84.7191 42.7646 84.0147C42.7646 83.3104 43.3356 82.7394 44.0399 82.7394Z" fill="#FF4000"/>
<path d="M44.0399 76.4395C44.7443 76.4395 45.3152 77.0104 45.3152 77.7148C45.3152 78.4191 44.7443 78.9901 44.0399 78.9901C43.3356 78.9901 42.7646 78.4191 42.7646 77.7148C42.7646 77.0104 43.3356 76.4395 44.0399 76.4395Z" fill="#FF4000"/>
<path d="M44.0399 70.1395C44.7443 70.1395 45.3152 70.7105 45.3152 71.4148C45.3152 72.1192 44.7443 72.6901 44.0399 72.6901C43.3356 72.6901 42.7646 72.1192 42.7646 71.4148C42.7646 70.7105 43.3356 70.1395 44.0399 70.1395Z" fill="#FF4000"/>
<path d="M44.0399 63.8395C44.7443 63.8395 45.3152 64.4105 45.3152 65.1148C45.3152 65.8192 44.7443 66.3901 44.0399 66.3901C43.3356 66.3901 42.7646 65.8192 42.7646 65.1148C42.7646 64.4105 43.3356 63.8395 44.0399 63.8395Z" fill="#FF4000"/>
<path d="M44.0399 57.5396C44.7443 57.5396 45.3152 58.1106 45.3152 58.8149C45.3152 59.5192 44.7443 60.0902 44.0399 60.0902C43.3356 60.0902 42.7646 59.5192 42.7646 58.8149C42.7646 58.1106 43.3356 57.5396 44.0399 57.5396Z" fill="#FF4000"/>
<path d="M37.7401 76.4395C38.4445 76.4395 39.0154 77.0104 39.0154 77.7148C39.0154 78.4191 38.4445 78.9901 37.7401 78.9901C37.0358 78.9901 36.4648 78.4191 36.4648 77.7148C36.4648 77.0104 37.0358 76.4395 37.7401 76.4395Z" fill="#FF4000"/>
<path d="M37.7401 70.1395C38.4445 70.1395 39.0154 70.7105 39.0154 71.4148C39.0154 72.1192 38.4445 72.6901 37.7401 72.6901C37.0358 72.6901 36.4648 72.1192 36.4648 71.4148C36.4648 70.7105 37.0358 70.1395 37.7401 70.1395Z" fill="#FF4000"/>
<path d="M37.7401 63.8395C38.4445 63.8395 39.0154 64.4105 39.0154 65.1148C39.0154 65.8192 38.4445 66.3901 37.7401 66.3901C37.0358 66.3901 36.4648 65.8192 36.4648 65.1148C36.4648 64.4105 37.0358 63.8395 37.7401 63.8395Z" fill="#FF4000"/>
</g>
</svg>
