<svg width="180" height="24" viewBox="0 0 180 24" fill="none" xmlns="http://www.w3.org/2000/svg">
<path d="M13.5 16.875C13.5 17.1717 13.412 17.4617 13.2472 17.7084C13.0824 17.955 12.8481 18.1473 12.574 18.2608C12.2999 18.3744 11.9983 18.4041 11.7074 18.3462C11.4164 18.2883 11.1491 18.1454 10.9393 17.9357C10.7296 17.7259 10.5867 17.4586 10.5288 17.1676C10.4709 16.8767 10.5006 16.5751 10.6142 16.301C10.7277 16.0269 10.92 15.7926 11.1666 15.6278C11.4133 15.463 11.7033 15.375 12 15.375C12.3978 15.375 12.7794 15.533 13.0607 15.8143C13.342 16.0956 13.5 16.4772 13.5 16.875ZM20.25 9.75V14.25C20.25 16.438 19.3808 18.5365 17.8336 20.0836C16.2865 21.6308 14.188 22.5 12 22.5C9.81196 22.5 7.71354 21.6308 6.16637 20.0836C4.61919 18.5365 3.75 16.438 3.75 14.25V6C3.75 5.60218 3.90804 5.22064 4.18934 4.93934C4.47064 4.65804 4.85218 4.5 5.25 4.5C5.64782 4.5 6.02936 4.65804 6.31066 4.93934C6.59196 5.22064 6.75 5.60218 6.75 6V11.25C6.75 11.4489 6.82902 11.6397 6.96967 11.7803C7.11032 11.921 7.30109 12 7.5 12C7.69891 12 7.88968 11.921 8.03033 11.7803C8.17098 11.6397 8.25 11.4489 8.25 11.25V3C8.25 2.60218 8.40804 2.22064 8.68934 1.93934C8.97064 1.65804 9.35218 1.5 9.75 1.5C10.1478 1.5 10.5294 1.65804 10.8107 1.93934C11.092 2.22064 11.25 2.60218 11.25 3V10.5C11.25 10.6989 11.329 10.8897 11.4697 11.0303C11.6103 11.171 11.8011 11.25 12 11.25C12.1989 11.25 12.3897 11.171 12.5303 11.0303C12.671 10.8897 12.75 10.6989 12.75 10.5V4.5C12.75 4.10218 12.908 3.72064 13.1893 3.43934C13.4706 3.15804 13.8522 3 14.25 3C14.6478 3 15.0294 3.15804 15.3107 3.43934C15.592 3.72064 15.75 4.10218 15.75 4.5V12C15.75 12.1989 15.829 12.3897 15.9697 12.5303C16.1103 12.671 16.3011 12.75 16.5 12.75C16.6989 12.75 16.8897 12.671 17.0303 12.5303C17.171 12.3897 17.25 12.1989 17.25 12V9.75C17.25 9.35218 17.408 8.97064 17.6893 8.68934C17.9706 8.40804 18.3522 8.25 18.75 8.25C19.1478 8.25 19.5294 8.40804 19.8107 8.68934C20.092 8.97064 20.25 9.35218 20.25 9.75ZM16.8356 16.7072C16.77 16.5759 15.195 13.5 12 13.5C8.805 13.5 7.23 16.5759 7.16437 16.7072C7.1383 16.7593 7.12473 16.8167 7.12473 16.875C7.12473 16.9333 7.1383 16.9907 7.16437 17.0428C7.23 17.1741 8.805 20.25 12 20.25C15.195 20.25 16.77 17.1741 16.8356 17.0428C16.8617 16.9907 16.8753 16.9333 16.8753 16.875C16.8753 16.8167 16.8617 16.7593 16.8356 16.7072Z" fill="#FF4000"/>
<path d="M34.864 18L32.4 13.648H31.344V18H29.104V6.832H33.296C34.16 6.832 34.896 6.98667 35.504 7.296C36.112 7.59467 36.5653 8.00533 36.864 8.528C37.1733 9.04 37.328 9.616 37.328 10.256C37.328 10.992 37.1147 11.6587 36.688 12.256C36.2613 12.8427 35.6267 13.248 34.784 13.472L37.456 18H34.864ZM31.344 11.968H33.216C33.824 11.968 34.2773 11.824 34.576 11.536C34.8747 11.2373 35.024 10.8267 35.024 10.304C35.024 9.792 34.8747 9.39733 34.576 9.12C34.2773 8.832 33.824 8.688 33.216 8.688H31.344V11.968ZM47.594 13.376C47.594 13.696 47.5727 13.984 47.53 14.24H41.05C41.1033 14.88 41.3273 15.3813 41.722 15.744C42.1167 16.1067 42.602 16.288 43.178 16.288C44.01 16.288 44.602 15.9307 44.954 15.216H47.37C47.114 16.0693 46.6233 16.7733 45.898 17.328C45.1727 17.872 44.282 18.144 43.226 18.144C42.3727 18.144 41.6047 17.9573 40.922 17.584C40.25 17.2 39.722 16.6613 39.338 15.968C38.9647 15.2747 38.778 14.4747 38.778 13.568C38.778 12.6507 38.9647 11.8453 39.338 11.152C39.7113 10.4587 40.234 9.92533 40.906 9.552C41.578 9.17867 42.3513 8.992 43.226 8.992C44.0687 8.992 44.8207 9.17333 45.482 9.536C46.154 9.89867 46.6713 10.416 47.034 11.088C47.4073 11.7493 47.594 12.512 47.594 13.376ZM45.274 12.736C45.2633 12.16 45.0553 11.7013 44.65 11.36C44.2447 11.008 43.7487 10.832 43.162 10.832C42.6073 10.832 42.138 11.0027 41.754 11.344C41.3807 11.6747 41.1513 12.1387 41.066 12.736H45.274ZM48.653 13.536C48.653 12.64 48.829 11.8453 49.181 11.152C49.5437 10.4587 50.0343 9.92533 50.653 9.552C51.2717 9.17867 51.9597 8.992 52.717 8.992C53.293 8.992 53.8423 9.12 54.365 9.376C54.8877 9.62133 55.3037 9.952 55.613 10.368V6.16H57.885V18H55.613V16.688C55.3357 17.1253 54.9463 17.4773 54.445 17.744C53.9437 18.0107 53.3623 18.144 52.701 18.144C51.9543 18.144 51.2717 17.952 50.653 17.568C50.0343 17.184 49.5437 16.6453 49.181 15.952C48.829 15.248 48.653 14.4427 48.653 13.536ZM55.629 13.568C55.629 13.024 55.5223 12.56 55.309 12.176C55.0957 11.7813 54.8077 11.4827 54.445 11.28C54.0823 11.0667 53.693 10.96 53.277 10.96C52.861 10.96 52.477 11.0613 52.125 11.264C51.773 11.4667 51.485 11.7653 51.261 12.16C51.0477 12.544 50.941 13.0027 50.941 13.536C50.941 14.0693 51.0477 14.5387 51.261 14.944C51.485 15.3387 51.773 15.6427 52.125 15.856C52.4877 16.0693 52.8717 16.176 53.277 16.176C53.693 16.176 54.0823 16.0747 54.445 15.872C54.8077 15.6587 55.0957 15.36 55.309 14.976C55.5223 14.5813 55.629 14.112 55.629 13.568ZM63.9288 18.112C63.1501 18.112 62.4461 17.9787 61.8168 17.712C61.1981 17.4453 60.7074 17.0613 60.3448 16.56C59.9821 16.0587 59.7954 15.4667 59.7848 14.784H62.1848C62.2168 15.2427 62.3768 15.6053 62.6648 15.872C62.9634 16.1387 63.3688 16.272 63.8808 16.272C64.4034 16.272 64.8141 16.1493 65.1128 15.904C65.4114 15.648 65.5608 15.3173 65.5608 14.912C65.5608 14.5813 65.4594 14.3093 65.2568 14.096C65.0541 13.8827 64.7981 13.7173 64.4888 13.6C64.1901 13.472 63.7741 13.3333 63.2408 13.184C62.5154 12.9707 61.9234 12.7627 61.4648 12.56C61.0168 12.3467 60.6274 12.032 60.2968 11.616C59.9768 11.1893 59.8168 10.624 59.8168 9.92C59.8168 9.25867 59.9821 8.68267 60.3128 8.192C60.6434 7.70133 61.1074 7.328 61.7048 7.072C62.3021 6.80533 62.9848 6.672 63.7528 6.672C64.9048 6.672 65.8381 6.95467 66.5528 7.52C67.2781 8.07467 67.6781 8.85333 67.7528 9.856H65.2888C65.2674 9.472 65.1021 9.15733 64.7928 8.912C64.4941 8.656 64.0941 8.528 63.5928 8.528C63.1554 8.528 62.8034 8.64 62.5368 8.864C62.2808 9.088 62.1528 9.41333 62.1528 9.84C62.1528 10.1387 62.2488 10.3893 62.4408 10.592C62.6434 10.784 62.8888 10.944 63.1768 11.072C63.4754 11.1893 63.8914 11.328 64.4248 11.488C65.1501 11.7013 65.7421 11.9147 66.2008 12.128C66.6594 12.3413 67.0541 12.6613 67.3848 13.088C67.7154 13.5147 67.8808 14.0747 67.8808 14.768C67.8808 15.3653 67.7261 15.92 67.4167 16.432C67.1074 16.944 66.6541 17.3547 66.0568 17.664C65.4594 17.9627 64.7501 18.112 63.9288 18.112ZM78.0628 13.376C78.0628 13.696 78.0414 13.984 77.9988 14.24H71.5188C71.5721 14.88 71.7961 15.3813 72.1908 15.744C72.5854 16.1067 73.0708 16.288 73.6468 16.288C74.4788 16.288 75.0708 15.9307 75.4228 15.216H77.8388C77.5828 16.0693 77.0921 16.7733 76.3668 17.328C75.6414 17.872 74.7508 18.144 73.6948 18.144C72.8414 18.144 72.0734 17.9573 71.3908 17.584C70.7188 17.2 70.1908 16.6613 69.8068 15.968C69.4334 15.2747 69.2467 14.4747 69.2467 13.568C69.2467 12.6507 69.4334 11.8453 69.8068 11.152C70.1801 10.4587 70.7028 9.92533 71.3748 9.552C72.0468 9.17867 72.8201 8.992 73.6948 8.992C74.5374 8.992 75.2894 9.17333 75.9508 9.536C76.6228 9.89867 77.1401 10.416 77.5028 11.088C77.8761 11.7493 78.0628 12.512 78.0628 13.376ZM75.7428 12.736C75.7321 12.16 75.5241 11.7013 75.1188 11.36C74.7134 11.008 74.2174 10.832 73.6308 10.832C73.0761 10.832 72.6068 11.0027 72.2228 11.344C71.8494 11.6747 71.6201 12.1387 71.5348 12.736H75.7428ZM79.1217 13.536C79.1217 12.64 79.2977 11.8453 79.6497 11.152C80.0124 10.4587 80.4978 9.92533 81.1058 9.552C81.7244 9.17867 82.4124 8.992 83.1698 8.992C83.8311 8.992 84.4071 9.12533 84.8978 9.392C85.3991 9.65867 85.7991 9.99467 86.0978 10.4V9.136H88.3538V18H86.0978V16.704C85.8098 17.12 85.4098 17.4667 84.8978 17.744C84.3964 18.0107 83.8151 18.144 83.1538 18.144C82.4071 18.144 81.7244 17.952 81.1058 17.568C80.4978 17.184 80.0124 16.6453 79.6497 15.952C79.2977 15.248 79.1217 14.4427 79.1217 13.536ZM86.0978 13.568C86.0978 13.024 85.9911 12.56 85.7778 12.176C85.5644 11.7813 85.2764 11.4827 84.9138 11.28C84.5511 11.0667 84.1618 10.96 83.7458 10.96C83.3298 10.96 82.9458 11.0613 82.5938 11.264C82.2418 11.4667 81.9538 11.7653 81.7298 12.16C81.5164 12.544 81.4098 13.0027 81.4098 13.536C81.4098 14.0693 81.5164 14.5387 81.7298 14.944C81.9538 15.3387 82.2418 15.6427 82.5938 15.856C82.9564 16.0693 83.3404 16.176 83.7458 16.176C84.1618 16.176 84.5511 16.0747 84.9138 15.872C85.2764 15.6587 85.5644 15.36 85.7778 14.976C85.9911 14.5813 86.0978 14.112 86.0978 13.568ZM101.55 9.008C102.638 9.008 103.512 9.344 104.174 10.016C104.846 10.6773 105.182 11.6053 105.182 12.8V18H102.942V13.104C102.942 12.4107 102.766 11.8827 102.414 11.52C102.062 11.1467 101.582 10.96 100.974 10.96C100.366 10.96 99.8802 11.1467 99.5175 11.52C99.1655 11.8827 98.9895 12.4107 98.9895 13.104V18H96.7495V13.104C96.7495 12.4107 96.5735 11.8827 96.2215 11.52C95.8695 11.1467 95.3895 10.96 94.7815 10.96C94.1628 10.96 93.6722 11.1467 93.3095 11.52C92.9575 11.8827 92.7815 12.4107 92.7815 13.104V18H90.5415V9.136H92.7815V10.208C93.0695 9.83467 93.4375 9.54133 93.8855 9.328C94.3442 9.11467 94.8455 9.008 95.3895 9.008C96.0828 9.008 96.7015 9.15733 97.2455 9.456C97.7895 9.744 98.2108 10.16 98.5095 10.704C98.7975 10.192 99.2135 9.78133 99.7575 9.472C100.312 9.16267 100.91 9.008 101.55 9.008ZM110.576 12.4C110.576 11.3013 110.821 10.32 111.312 9.456C111.813 8.58133 112.49 7.904 113.344 7.424C114.208 6.93333 115.173 6.688 116.24 6.688C117.488 6.688 118.581 7.008 119.52 7.648C120.458 8.288 121.114 9.17333 121.488 10.304H118.912C118.656 9.77067 118.293 9.37067 117.824 9.104C117.365 8.83733 116.832 8.704 116.224 8.704C115.573 8.704 114.992 8.85867 114.48 9.168C113.978 9.46667 113.584 9.89333 113.296 10.448C113.018 11.0027 112.88 11.6533 112.88 12.4C112.88 13.136 113.018 13.7867 113.296 14.352C113.584 14.9067 113.978 15.3387 114.48 15.648C114.992 15.9467 115.573 16.096 116.224 16.096C116.832 16.096 117.365 15.9627 117.824 15.696C118.293 15.4187 118.656 15.0133 118.912 14.48H121.488C121.114 15.6213 120.458 16.512 119.52 17.152C118.592 17.7813 117.498 18.096 116.24 18.096C115.173 18.096 114.208 17.856 113.344 17.376C112.49 16.8853 111.813 16.208 111.312 15.344C110.821 14.48 110.576 13.4987 110.576 12.4ZM125.641 6.16V18H123.401V6.16H125.641ZM131.79 18.144C130.937 18.144 130.169 17.9573 129.486 17.584C128.803 17.2 128.265 16.6613 127.87 15.968C127.486 15.2747 127.294 14.4747 127.294 13.568C127.294 12.6613 127.491 11.8613 127.886 11.168C128.291 10.4747 128.841 9.94133 129.534 9.568C130.227 9.184 131.001 8.992 131.854 8.992C132.707 8.992 133.481 9.184 134.174 9.568C134.867 9.94133 135.411 10.4747 135.806 11.168C136.211 11.8613 136.414 12.6613 136.414 13.568C136.414 14.4747 136.206 15.2747 135.79 15.968C135.385 16.6613 134.83 17.2 134.126 17.584C133.433 17.9573 132.654 18.144 131.79 18.144ZM131.79 16.192C132.195 16.192 132.574 16.096 132.926 15.904C133.289 15.7013 133.577 15.4027 133.79 15.008C134.003 14.6133 134.11 14.1333 134.11 13.568C134.11 12.7253 133.886 12.08 133.438 11.632C133.001 11.1733 132.462 10.944 131.822 10.944C131.182 10.944 130.643 11.1733 130.206 11.632C129.779 12.08 129.566 12.7253 129.566 13.568C129.566 14.4107 129.774 15.0613 130.19 15.52C130.617 15.968 131.15 16.192 131.79 16.192ZM140.665 10.976V15.264C140.665 15.5627 140.734 15.7813 140.873 15.92C141.022 16.048 141.268 16.112 141.609 16.112H142.649V18H141.241C139.353 18 138.409 17.0827 138.409 15.248V10.976H137.353V9.136H138.409V6.944H140.665V9.136H142.649V10.976H140.665ZM149.252 9.008C149.924 9.008 150.522 9.15733 151.044 9.456C151.567 9.744 151.972 10.176 152.26 10.752C152.559 11.3173 152.708 12 152.708 12.8V18H150.468V13.104C150.468 12.4 150.292 11.8613 149.94 11.488C149.588 11.104 149.108 10.912 148.5 10.912C147.882 10.912 147.391 11.104 147.028 11.488C146.676 11.8613 146.5 12.4 146.5 13.104V18H144.26V6.16H146.5V10.24C146.788 9.856 147.172 9.55733 147.652 9.344C148.132 9.12 148.666 9.008 149.252 9.008ZM155.974 8.08C155.58 8.08 155.249 7.95733 154.982 7.712C154.726 7.456 154.598 7.14133 154.598 6.768C154.598 6.39467 154.726 6.08533 154.982 5.84C155.249 5.584 155.58 5.456 155.974 5.456C156.369 5.456 156.694 5.584 156.95 5.84C157.217 6.08533 157.35 6.39467 157.35 6.768C157.35 7.14133 157.217 7.456 156.95 7.712C156.694 7.95733 156.369 8.08 155.974 8.08ZM157.078 9.136V18H154.838V9.136H157.078ZM164.204 9.008C165.26 9.008 166.113 9.344 166.764 10.016C167.414 10.6773 167.74 11.6053 167.74 12.8V18H165.5V13.104C165.5 12.4 165.324 11.8613 164.972 11.488C164.62 11.104 164.14 10.912 163.532 10.912C162.913 10.912 162.422 11.104 162.06 11.488C161.708 11.8613 161.532 12.4 161.532 13.104V18H159.292V9.136H161.532V10.24C161.83 9.856 162.209 9.55733 162.668 9.344C163.137 9.12 163.649 9.008 164.204 9.008ZM173.342 8.992C174.003 8.992 174.584 9.12533 175.086 9.392C175.587 9.648 175.982 9.984 176.27 10.4V9.136H178.526V18.064C178.526 18.8853 178.36 19.616 178.03 20.256C177.699 20.9067 177.203 21.4187 176.542 21.792C175.88 22.176 175.08 22.368 174.142 22.368C172.883 22.368 171.848 22.0747 171.038 21.488C170.238 20.9013 169.784 20.1013 169.678 19.088H171.902C172.019 19.4933 172.27 19.8133 172.654 20.048C173.048 20.2933 173.523 20.416 174.078 20.416C174.728 20.416 175.256 20.2187 175.662 19.824C176.067 19.44 176.27 18.8533 176.27 18.064V16.688C175.982 17.104 175.582 17.4507 175.07 17.728C174.568 18.0053 173.992 18.144 173.342 18.144C172.595 18.144 171.912 17.952 171.294 17.568C170.675 17.184 170.184 16.6453 169.822 15.952C169.47 15.248 169.294 14.4427 169.294 13.536C169.294 12.64 169.47 11.8453 169.822 11.152C170.184 10.4587 170.67 9.92533 171.278 9.552C171.896 9.17867 172.584 8.992 173.342 8.992ZM176.27 13.568C176.27 13.024 176.163 12.56 175.95 12.176C175.736 11.7813 175.448 11.4827 175.086 11.28C174.723 11.0667 174.334 10.96 173.918 10.96C173.502 10.96 173.118 11.0613 172.766 11.264C172.414 11.4667 172.126 11.7653 171.902 12.16C171.688 12.544 171.582 13.0027 171.582 13.536C171.582 14.0693 171.688 14.5387 171.902 14.944C172.126 15.3387 172.414 15.6427 172.766 15.856C173.128 16.0693 173.512 16.176 173.918 16.176C174.334 16.176 174.723 16.0747 175.086 15.872C175.448 15.6587 175.736 15.36 175.95 14.976C176.163 14.5813 176.27 14.112 176.27 13.568Z" fill="#10151F"/>
</svg>
