<svg width="20" height="14" viewBox="0 0 20 14" fill="none" xmlns="http://www.w3.org/2000/svg">
<path d="M1.69556 7.26867C1.63799 7.09594 1.63794 6.90895 1.6954 6.73619C2.85237 3.2581 6.13326 0.75 9.99994 0.75C13.8648 0.75 17.1445 3.25577 18.3029 6.73134C18.3604 6.90406 18.3605 7.09106 18.303 7.26381C17.1461 10.7419 13.8652 13.25 9.99848 13.25C6.1336 13.25 2.85397 10.7442 1.69556 7.26867Z" stroke="#0F172A" stroke-width="1.5" stroke-linecap="round" stroke-linejoin="round"/>
<path d="M12.4993 7C12.4993 8.38071 11.38 9.5 9.99927 9.5C8.61856 9.5 7.49927 8.38071 7.49927 7C7.49927 5.61929 8.61856 4.5 9.99927 4.5C11.38 4.5 12.4993 5.61929 12.4993 7Z" stroke="#0F172A" stroke-width="1.5" stroke-linecap="round" stroke-linejoin="round"/>
</svg>
